<svg aria-hidden="true" style="width:0;height:0;position:absolute;overflow:hidden" xmlns="http://www.w3.org/2000/svg"><defs><symbol id="icon-instagram" viewBox="0 0 32 32"><path stroke-linejoin="round" stroke-linecap="round" stroke-width="2" d="M12 29.333h8c6.667 0 9.333-2.667 9.333-9.333v-8c0-6.667-2.667-9.333-9.333-9.333h-8c-6.667 0-9.333 2.667-9.333 9.333v8c0 6.667 2.667 9.333 9.333 9.333z"/><path stroke-linejoin="round" stroke-linecap="round" stroke-width="2" d="M16 20.667a4.676 4.676 0 0 0 3.3-1.367 4.68 4.68 0 0 0 1.367-3.3 4.676 4.676 0 0 0-1.367-3.3 4.68 4.68 0 0 0-3.3-1.367 4.667 4.667 0 0 0 0 9.334z"/><path stroke-linejoin="round" stroke-linecap="round" stroke-width="2.667" d="M23.515 9.333h.016"/></symbol><symbol id="icon-call" viewBox="0 0 32 32"><path stroke-miterlimit="10" stroke-width="2" d="M29.293 24.44c0 .48-.107.973-.333 1.453s-.52.933-.907 1.36c-.653.72-1.373 1.24-2.187 1.573-.8.333-1.667.507-2.6.507-1.36 0-2.813-.32-4.347-.973s-3.067-1.533-4.587-2.64a38.32 38.32 0 0 1-4.373-3.733 37.89 37.89 0 0 1-3.72-4.36c-1.093-1.52-1.973-3.04-2.613-4.547-.64-1.52-.96-2.973-.96-4.36 0-.907.16-1.773.48-2.573.32-.813.827-1.56 1.533-2.227.853-.84 1.787-1.253 2.773-1.253.373 0 .747.08 1.08.24.347.16.653.4.893.747l3.093 4.36c.24.333.413.64.533.933.12.28.187.56.187.813 0 .32-.093.64-.28.947a4.52 4.52 0 0 1-.747.947l-1.013 1.053a.712.712 0 0 0-.213.533c0 .107.013.2.04.307.04.107.08.187.107.267.24.44.653 1.013 1.24 1.707.6.693 1.24 1.4 1.933 2.107.72.707 1.413 1.36 2.12 1.96.693.587 1.267.987 1.72 1.227.067.027.147.067.24.107a.92.92 0 0 0 .333.053c.227 0 .4-.08.547-.227l1.013-1c.333-.333.653-.587.96-.747.307-.187.613-.28.947-.28.253 0 .52.053.813.173s.6.293.933.52l4.413 3.133c.347.24.587.52.733.853.133.333.213.667.213 1.04z"/></symbol><symbol id="icon-star" viewBox="0 0 34 32"><path fill="#ffd687" style="fill:var(--color1,#ffd687)" d="M15.475 2.942c.553-1.701 2.959-1.701 3.512 0l2.251 6.928a1.846 1.846 0 0 0 1.756 1.276h7.284c1.788 0 2.532 2.289 1.085 3.34l-5.893 4.281a1.846 1.846 0 0 0-.671 2.064l2.251 6.927c.553 1.701-1.394 3.115-2.841 2.064l-5.893-4.282a1.846 1.846 0 0 0-2.17 0l-5.893 4.282c-1.447 1.051-3.394-.363-2.841-2.064l2.251-6.927a1.846 1.846 0 0 0-.671-2.064l-5.893-4.281c-1.447-1.051-.703-3.34 1.085-3.34h7.284c.8 0 1.509-.515 1.756-1.276l2.251-6.928z"/></symbol><symbol id="icon-mail" viewBox="0 0 32 32"><path stroke-linejoin="round" stroke-linecap="round" stroke-width="2" d="M16 2.667v8m0 0L18.667 8M16 10.667 13.333 8"/><path stroke-linejoin="round" stroke-linecap="round" stroke-miterlimit="10" stroke-width="2" d="M6.667 16v-5.333c0-2.68 0-4.893 4-5.28M25.333 16v-5.333c0-2.68 0-4.893-4-5.28M9.333 16C4 16 4 18.387 4 21.333v1.333c0 3.68 0 6.667 6.667 6.667h10.667c5.333 0 6.667-2.987 6.667-6.667v-1.333c0-2.947 0-5.333-5.333-5.333-1.333 0-1.707.28-2.4.8l-1.36 1.44a3.984 3.984 0 0 1-2.913 1.259 4.009 4.009 0 0 1-2.913-1.259l-1.347-1.44c-.693-.52-1.067-.8-2.4-.8z"/></symbol><symbol id="icon-instagram" viewBox="0 0 32 32"><path stroke-linejoin="round" stroke-linecap="round" stroke-width="2" d="M12 29.333h8c6.667 0 9.333-2.667 9.333-9.333v-8c0-6.667-2.667-9.333-9.333-9.333h-8c-6.667 0-9.333 2.667-9.333 9.333v8c0 6.667 2.667 9.333 9.333 9.333z"/><path stroke-linejoin="round" stroke-linecap="round" stroke-width="2" d="M16 20.667a4.676 4.676 0 0 0 3.3-1.367 4.68 4.68 0 0 0 1.367-3.3 4.676 4.676 0 0 0-1.367-3.3 4.68 4.68 0 0 0-3.3-1.367 4.667 4.667 0 0 0 0 9.334z"/><path stroke-linejoin="round" stroke-linecap="round" stroke-width="2.667" d="M23.515 9.333h.016"/></symbol><symbol id="icon-menu" viewBox="0 0 46 32"><path d="M1.778 0h42.667a1.778 1.778 0 1 1 0 3.556H1.778a1.778 1.778 0 1 1 0-3.556zM1.778 14.222h42.667a1.778 1.778 0 1 1 0 3.556H1.778a1.778 1.778 0 1 1 0-3.556zM1.778 28.444h42.667a1.778 1.778 0 1 1 0 3.556H1.778a1.778 1.778 0 1 1 0-3.556z"/></symbol></defs></svg>