<svg aria-hidden="true" style="position: absolute; width: 0; height: 0; overflow: hidden;" version="1.1" xmlns="http://www.w3.org/2000/svg" xmlns:xlink="http://www.w3.org/1999/xlink">
<defs>
<symbol id="icon-instagram" viewBox="0 0 32 32">
<path stroke-linejoin="round" stroke-linecap="round" stroke-miterlimit="4" stroke-width="2" d="M12 29.333h8c6.667 0 9.333-2.667 9.333-9.333v-8c0-6.667-2.667-9.333-9.333-9.333h-8c-6.667 0-9.333 2.667-9.333 9.333v8c0 6.667 2.667 9.333 9.333 9.333z"></path>
<path stroke-linejoin="round" stroke-linecap="round" stroke-miterlimit="4" stroke-width="2" d="M16 20.667c0.613 0 1.22-0.121 1.786-0.355s1.081-0.578 1.514-1.012c0.433-0.433 0.777-0.948 1.012-1.514s0.355-1.173 0.355-1.786c0-0.613-0.121-1.22-0.355-1.786s-0.578-1.081-1.012-1.514c-0.433-0.433-0.948-0.777-1.514-1.012s-1.173-0.355-1.786-0.355c-1.238 0-2.425 0.492-3.3 1.367s-1.367 2.062-1.367 3.3c0 1.238 0.492 2.425 1.367 3.3s2.062 1.367 3.3 1.367z"></path>
<path stroke-linejoin="round" stroke-linecap="round" stroke-miterlimit="4" stroke-width="2.6667" d="M23.515 9.333h0.016"></path>
</symbol>
<symbol id="icon-call" viewBox="0 0 32 32">
<path stroke-linejoin="miter" stroke-linecap="butt" stroke-miterlimit="10" stroke-width="1.8462" d="M29.293 24.44c0 0.48-0.107 0.973-0.333 1.453s-0.52 0.933-0.907 1.36c-0.653 0.72-1.373 1.24-2.187 1.573-0.8 0.333-1.667 0.507-2.6 0.507-1.36 0-2.813-0.32-4.347-0.973s-3.067-1.533-4.587-2.64c-1.549-1.133-3.011-2.381-4.373-3.733-1.348-1.357-2.592-2.815-3.72-4.36-1.093-1.52-1.973-3.040-2.613-4.547-0.64-1.52-0.96-2.973-0.96-4.36 0-0.907 0.16-1.773 0.48-2.573 0.32-0.813 0.827-1.56 1.533-2.227 0.853-0.84 1.787-1.253 2.773-1.253 0.373 0 0.747 0.080 1.080 0.24 0.347 0.16 0.653 0.4 0.893 0.747l3.093 4.36c0.24 0.333 0.413 0.64 0.533 0.933 0.12 0.28 0.187 0.56 0.187 0.813 0 0.32-0.093 0.64-0.28 0.947-0.173 0.307-0.427 0.627-0.747 0.947l-1.013 1.053c-0.147 0.147-0.213 0.32-0.213 0.533 0 0.107 0.013 0.2 0.040 0.307 0.040 0.107 0.080 0.187 0.107 0.267 0.24 0.44 0.653 1.013 1.24 1.707 0.6 0.693 1.24 1.4 1.933 2.107 0.72 0.707 1.413 1.36 2.12 1.96 0.693 0.587 1.267 0.987 1.72 1.227 0.067 0.027 0.147 0.067 0.24 0.107 0.107 0.040 0.213 0.053 0.333 0.053 0.227 0 0.4-0.080 0.547-0.227l1.013-1c0.333-0.333 0.653-0.587 0.96-0.747 0.307-0.187 0.613-0.28 0.947-0.28 0.253 0 0.52 0.053 0.813 0.173s0.6 0.293 0.933 0.52l4.413 3.133c0.347 0.24 0.587 0.52 0.733 0.853 0.133 0.333 0.213 0.667 0.213 1.040z"></path>
</symbol>
<symbol id="icon-star" viewBox="0 0 34 32">
<path fill="#ffd687" style="fill: var(--color1, #ffd687)" d="M15.475 2.942c0.553-1.701 2.959-1.701 3.512 0l2.251 6.928c0.247 0.761 0.956 1.276 1.756 1.276h7.284c1.788 0 2.532 2.289 1.085 3.34l-5.893 4.281c-0.647 0.47-0.918 1.303-0.671 2.064l2.251 6.927c0.553 1.701-1.394 3.115-2.841 2.064l-5.893-4.282c-0.647-0.47-1.523-0.47-2.17 0l-5.893 4.282c-1.447 1.051-3.394-0.363-2.841-2.064l2.251-6.927c0.247-0.761-0.024-1.594-0.671-2.064l-5.893-4.281c-1.447-1.051-0.703-3.34 1.085-3.34h7.284c0.8 0 1.509-0.515 1.756-1.276l2.251-6.928z"></path>
</symbol>
<symbol id="icon-menu" viewBox="0 0 46 32">
<path d="M1.778 0h42.667c0.982 0 1.778 0.796 1.778 1.778s-0.796 1.778-1.778 1.778h-42.667c-0.982 0-1.778-0.796-1.778-1.778s0.796-1.778 1.778-1.778z"></path>
<path d="M1.778 14.222h42.667c0.982 0 1.778 0.796 1.778 1.778s-0.796 1.778-1.778 1.778h-42.667c-0.982 0-1.778-0.796-1.778-1.778s0.796-1.778 1.778-1.778z"></path>
<path d="M1.778 28.444h42.667c0.982 0 1.778 0.796 1.778 1.778s-0.796 1.778-1.778 1.778h-42.667c-0.982 0-1.778-0.796-1.778-1.778s0.796-1.778 1.778-1.778z"></path>
</symbol>
</defs>
</svg>
